<svg width="2977" height="3026" viewBox="0 0 2977 3026" fill="none" xmlns="http://www.w3.org/2000/svg">
<path d="M1102.01 2543.24C855.007 2467.76 618.903 2514.81 509.937 2555C497.766 2559.49 495.091 2575.13 504.257 2584.31C1129.94 3211.02 1785.43 3046.29 2108.94 2843.54C2126.62 2832.46 2113.2 2804.89 2092.65 2808.41C1742.51 2868.31 1406.84 2636.38 1102.01 2543.24Z" fill="#FFBB00"/>
<path d="M1790.14 2580.43C1635.51 2551.07 1523.5 2563.56 1463.86 2579.77C1446.39 2584.52 1443.82 2605.35 1459.13 2615C1556.45 2676.37 1776.16 2768.08 2035.01 2757.12C2259.08 2747.62 2382.34 2639.37 2444.02 2550.66C2458.09 2530.43 2434.94 2509.46 2413.15 2520.97C2269.6 2596.82 2080.42 2635.55 1790.14 2580.43Z" fill="#0C6D9F"/>
<path d="M2941.24 2018.11C2896.76 2036.81 2852.61 2048.41 2808.77 2052.92C2764.94 2057.43 2723.36 2054.86 2684.04 2045.19C2645.36 2036.16 2610.88 2020.37 2580.58 1997.81C2550.28 1975.25 2526.43 1946.56 2509.03 1911.75C2492.27 1876.94 2483.89 1836.65 2483.89 1790.89C2483.89 1752.86 2490.01 1718.05 2502.26 1686.46C2515.15 1654.23 2533.2 1626.19 2556.41 1602.34C2579.61 1577.84 2607.01 1559.15 2638.6 1546.26C2670.18 1532.72 2704.67 1525.95 2742.06 1525.95C2775.58 1525.95 2805.87 1531.43 2832.95 1542.39C2860.02 1553.35 2883.55 1568.82 2903.53 1588.8C2923.51 1608.14 2939.63 1631.35 2951.88 1658.42C2964.12 1685.49 2971.86 1715.15 2975.08 1747.38C2978.31 1779.61 2976.37 1813.77 2969.28 1849.87C2916.42 1849.87 2863.24 1849.87 2809.74 1849.87C2756.24 1849.87 2703.06 1849.87 2650.2 1849.87C2662.45 1874.36 2682.75 1891.77 2711.11 1902.08C2740.12 1912.4 2774.29 1915.62 2813.61 1911.75C2853.57 1907.88 2896.12 1897.57 2941.24 1880.81C2941.24 1903.37 2941.24 1926.26 2941.24 1949.46C2941.24 1972.67 2941.24 1995.55 2941.24 2018.11ZM2738.19 1669.06C2719.49 1669.06 2702.09 1674.21 2685.97 1684.53C2670.5 1694.84 2658.58 1710.63 2650.2 1731.91C2679.21 1731.91 2708.21 1731.91 2737.22 1731.91C2766.87 1731.91 2796.2 1731.91 2825.21 1731.91C2817.47 1709.99 2805.87 1694.2 2790.4 1684.53C2775.57 1674.21 2758.17 1669.06 2738.19 1669.06Z" fill="#0C6D9F"/>
<path d="M2105.2 2041.32C2105.2 1958.81 2105.2 1875.65 2105.2 1791.85C2105.2 1707.41 2105.2 1623.93 2105.2 1541.42C2131.63 1541.42 2158.38 1541.42 2185.45 1541.42C2212.52 1541.42 2238.95 1541.42 2264.74 1541.42C2264.74 1545.94 2264.74 1550.45 2264.74 1554.96C2264.74 1559.47 2264.74 1563.98 2264.74 1568.5C2284.72 1554.32 2307.28 1543.68 2332.42 1536.59C2357.56 1529.5 2384.96 1527.56 2414.61 1530.79C2414.61 1556.57 2414.61 1582.68 2414.61 1609.11C2414.61 1635.54 2414.61 1661.64 2414.61 1687.43C2363.69 1680.34 2325.98 1684.85 2301.48 1700.96C2276.99 1716.44 2264.74 1741.9 2264.74 1777.35C2264.74 1820.54 2264.74 1864.37 2264.74 1908.85C2264.74 1953.33 2264.74 1997.49 2264.74 2041.32C2238.95 2041.32 2212.52 2041.32 2185.45 2041.32C2158.38 2041.32 2131.63 2041.32 2105.2 2041.32Z" fill="#0C6D9F"/>
<path d="M1810.17 2041.32C1810.17 2036.16 1810.17 2031.33 1810.17 2026.82C1810.17 2021.66 1810.17 2016.82 1810.17 2012.31C1794.06 2025.85 1775.69 2036.16 1755.06 2043.25C1735.08 2050.99 1713.48 2054.86 1690.28 2054.86C1657.4 2054.86 1626.46 2048.73 1597.45 2036.48C1568.45 2023.59 1542.66 2005.54 1520.1 1982.34C1498.18 1958.49 1480.78 1930.45 1467.89 1898.22C1455.64 1865.98 1449.51 1830.21 1449.51 1790.89C1449.51 1750.92 1455.64 1714.82 1467.89 1682.59C1480.78 1650.36 1498.18 1622.97 1520.1 1600.4C1542.66 1577.2 1568.45 1559.47 1597.45 1547.22C1626.46 1534.33 1657.08 1527.89 1689.31 1527.89C1712.52 1527.89 1734.43 1531.75 1755.06 1539.49C1775.69 1546.58 1794.06 1556.57 1810.17 1569.46C1810.17 1564.31 1810.17 1559.47 1810.17 1554.96C1810.17 1550.45 1810.17 1545.94 1810.17 1541.42C1836.6 1541.42 1863.35 1541.42 1890.43 1541.42C1917.5 1541.42 1943.93 1541.42 1969.72 1541.42C1969.72 1623.93 1969.72 1707.41 1969.72 1791.85C1969.72 1875.65 1969.72 1958.81 1969.72 2041.32C1943.93 2041.32 1917.5 2041.32 1890.43 2041.32C1863.35 2041.32 1836.6 2041.32 1810.17 2041.32ZM1711.55 1913.69C1742.49 1913.69 1767.31 1902.41 1786 1879.84C1804.7 1857.28 1814.04 1827.63 1814.04 1790.89C1814.04 1754.14 1804.7 1724.81 1786 1702.9C1767.31 1680.34 1742.49 1669.06 1711.55 1669.06C1679.96 1669.06 1654.82 1680.01 1636.13 1701.93C1618.08 1723.85 1609.06 1753.5 1609.06 1790.89C1609.06 1828.27 1618.08 1858.25 1636.13 1880.81C1654.82 1902.73 1679.96 1913.69 1711.55 1913.69Z" fill="#0C6D9F"/>
<path d="M1176.69 2041.32C1176.69 1924.64 1176.69 1807 1176.69 1688.39C1176.69 1569.79 1176.69 1452.14 1176.69 1335.47C1203.12 1335.47 1229.87 1335.47 1256.95 1335.47C1284.02 1335.47 1310.45 1335.47 1336.23 1335.47C1336.23 1452.14 1336.23 1569.79 1336.23 1688.39C1336.23 1807 1336.23 1924.64 1336.23 2041.32C1310.45 2041.32 1284.02 2041.32 1256.95 2041.32C1229.87 2041.32 1203.12 2041.32 1176.69 2041.32Z" fill="#0C6D9F"/>
<path d="M799.973 2056.79C762.586 2056.79 727.777 2050.34 695.546 2037.45C663.316 2023.91 635.275 2005.22 611.425 1981.37C587.574 1956.87 568.88 1928.51 555.343 1896.28C542.451 1864.05 536.005 1828.92 536.005 1790.89C536.005 1752.86 542.451 1717.72 555.343 1685.49C568.88 1653.26 587.574 1625.22 611.425 1601.37C635.275 1577.52 663.316 1559.15 695.546 1546.26C727.777 1532.72 762.586 1525.95 799.973 1525.95C838.005 1525.95 872.814 1532.72 904.4 1546.26C936.631 1559.15 964.671 1577.52 988.522 1601.37C1012.37 1625.22 1030.74 1653.26 1043.64 1685.49C1057.17 1717.72 1063.94 1752.86 1063.94 1790.89C1063.94 1828.92 1057.17 1864.05 1043.64 1896.28C1030.74 1928.51 1012.37 1956.87 988.522 1981.37C964.671 2005.22 936.631 2023.91 904.4 2037.45C872.814 2050.34 838.005 2056.79 799.973 2056.79ZM799.973 1912.72C831.559 1912.72 856.699 1901.44 875.393 1878.88C894.731 1855.67 904.4 1826.34 904.4 1790.89C904.4 1754.79 894.731 1725.78 875.393 1703.87C856.699 1681.3 831.559 1670.02 799.973 1670.02C768.387 1670.02 742.925 1681.3 723.587 1703.87C704.893 1725.78 695.546 1754.79 695.546 1790.89C695.546 1826.34 704.893 1855.67 723.587 1878.88C742.925 1901.44 768.387 1912.72 799.973 1912.72Z" fill="#0C6D9F"/>
<path d="M455.668 1843.1C455.668 1892.09 442.776 1932.06 416.991 1963C391.852 1993.3 357.687 2015.21 314.498 2028.75C271.954 2042.29 224.253 2048.09 171.395 2046.15C118.536 2044.86 64.7115 2036.81 9.91953 2021.98C9.91953 1994.26 9.91953 1966.54 9.91953 1938.83C9.91953 1911.11 9.91953 1883.39 9.91953 1855.67C60.1992 1873.72 105.967 1885 147.222 1889.51C188.477 1894.03 221.352 1892.41 245.847 1884.68C270.342 1876.3 282.59 1862.44 282.59 1843.1C282.59 1829.56 275.821 1818.61 262.285 1810.23C248.748 1801.2 231.021 1793.14 209.104 1786.05C187.832 1778.96 165.271 1770.9 141.42 1761.88C117.57 1752.21 94.6859 1740.29 72.7691 1726.1C51.4969 1711.28 34.0924 1692.26 20.5556 1669.06C7.01878 1645.21 0.250366 1615.55 0.250366 1580.1C0.250366 1536.27 11.8534 1499.2 35.0594 1468.9C58.2653 1438.61 89.529 1415.72 128.85 1400.25C168.816 1384.78 213.939 1377.05 264.219 1377.05C315.143 1377.05 367.679 1384.78 421.826 1400.25C421.826 1427.97 421.826 1455.69 421.826 1483.41C421.826 1511.13 421.826 1538.84 421.826 1566.56C376.703 1547.22 335.126 1535.62 297.094 1531.75C259.706 1527.24 229.732 1529.18 207.17 1537.56C184.609 1545.29 173.328 1558.18 173.328 1576.23C173.328 1589.12 180.097 1599.76 193.634 1608.14C207.17 1616.52 224.575 1624.26 245.847 1631.35C267.764 1637.79 290.648 1645.85 314.498 1655.52C338.349 1664.54 360.91 1676.79 382.182 1692.26C404.099 1707.09 421.826 1726.75 435.363 1751.24C448.9 1775.09 455.668 1805.71 455.668 1843.1Z" fill="#0C6D9F"/>
<path d="M1832.21 2210.74L1784.79 2348.31H1756.12L1815.86 2189.59H1834.17L1832.21 2210.74ZM1871.89 2348.31L1824.36 2210.74L1822.29 2189.59H1840.71L1900.67 2348.31H1871.89ZM1869.6 2289.44V2311.13H1783.27V2289.44H1869.6Z" fill="#936D38"/>
<path d="M1706.83 2189.59V2348.31H1679.47L1608.29 2234.61V2348.31H1580.93V2189.59H1608.29L1679.69 2303.5V2189.59H1706.83Z" fill="#936D38"/>
<path d="M1529.56 2326.61V2348.31H1445.3V2326.61H1529.56ZM1453.04 2189.59V2348.31H1425.68V2189.59H1453.04ZM1518.55 2255.87V2277.23H1445.3V2255.87H1518.55ZM1529.02 2189.59V2211.4H1445.3V2189.59H1529.02Z" fill="#936D38"/>
<path d="M1256.04 2189.59H1312.18C1324.24 2189.59 1334.52 2191.41 1343.03 2195.04C1351.53 2198.68 1358.03 2204.06 1362.54 2211.18C1367.12 2218.23 1369.41 2226.95 1369.41 2237.34C1369.41 2245.26 1367.95 2252.24 1365.05 2258.27C1362.14 2264.3 1358.03 2269.39 1352.73 2273.53C1347.42 2277.6 1341.1 2280.76 1333.76 2283.01L1325.48 2287.04H1275.01L1274.79 2265.35H1312.61C1319.15 2265.35 1324.6 2264.19 1328.97 2261.86C1333.33 2259.54 1336.6 2256.38 1338.78 2252.38C1341.03 2248.31 1342.15 2243.73 1342.15 2238.65C1342.15 2233.12 1341.06 2228.33 1338.88 2224.26C1336.78 2220.12 1333.51 2216.95 1329.07 2214.77C1324.64 2212.52 1319.01 2211.4 1312.18 2211.4H1283.4V2348.31H1256.04V2189.59ZM1346.62 2348.31L1309.34 2277.02L1338.01 2276.91L1375.84 2346.89V2348.31H1346.62Z" fill="#936D38"/>
<path d="M1140.8 2210.74L1093.38 2348.31H1064.71L1124.45 2189.59H1142.76L1140.8 2210.74ZM1180.47 2348.31L1132.95 2210.74L1130.88 2189.59H1149.3L1209.25 2348.31H1180.47ZM1178.19 2289.44V2311.13H1091.85V2289.44H1178.19Z" fill="#936D38"/>
<path d="M1479.37 437.442C950.164 437.442 805.938 889.605 822.592 1171.16C824.228 1198.81 863.19 1209.98 885.461 1193.5C978.562 1124.61 1172.52 1048.08 1479.37 1048.08C1783.18 1048.08 1981.96 1123.1 2078.62 1191.45C2101.7 1207.77 2142.57 1194.83 2143.4 1166.57C2152.57 853.739 1966.52 437.442 1479.37 437.442Z" fill="#FFBB00"/>
<path d="M1556.46 167.77C1556.46 260.213 1523.16 335.153 1482.07 335.153C1440.99 335.153 1407.68 260.213 1407.68 167.77C1407.68 75.3274 1407.68 0.387608 1482.07 0.387608C1556.46 0.387608 1556.46 75.3274 1556.46 167.77Z" fill="#FFBB00"/>
<path d="M2087.99 391.628C2028.59 462.457 1954.91 498.472 1923.43 472.07C1891.95 445.668 1914.59 366.847 1973.99 296.017C2033.4 225.188 2081.55 167.77 2138.55 215.575C2195.55 263.38 2147.39 320.798 2087.99 391.628Z" fill="#FFBB00"/>
<path d="M2367.02 854.262C2278.47 880.777 2197.12 870.365 2185.34 831.006C2173.55 791.646 2235.79 738.245 2324.35 711.729C2412.91 685.214 2484.7 663.719 2506.04 734.986C2527.37 806.252 2455.58 827.747 2367.02 854.262Z" fill="#FFBB00"/>
<path d="M640.564 706.712C729.905 730.457 793.775 781.896 783.221 821.603C772.668 861.31 691.687 874.25 602.346 850.504C513.005 826.759 440.58 807.51 459.688 735.614C478.797 663.717 551.222 682.967 640.564 706.712Z" fill="#FFBB00"/>
<path d="M987.908 300.088C1042.26 374.866 1059.37 455.068 1026.14 479.223C992.905 503.379 921.903 462.341 867.554 387.563C813.204 312.784 769.145 252.165 829.322 208.427C889.499 164.69 933.558 225.31 987.908 300.088Z" fill="#FFBB00"/>
</svg>
