<svg width="2978" height="3026" viewBox="0 0 2978 3026" fill="none" xmlns="http://www.w3.org/2000/svg">
<path d="M1102.51 2543.24C855.509 2467.76 619.406 2514.81 510.44 2555C498.269 2559.49 495.594 2575.13 504.76 2584.31C1130.44 3211.02 1785.94 3046.29 2109.45 2843.54C2127.12 2832.46 2113.71 2804.89 2093.15 2808.41C1743.02 2868.31 1407.34 2636.38 1102.51 2543.24Z" fill="white"/>
<path d="M1790.64 2580.43C1636.01 2551.07 1524 2563.56 1464.36 2579.77C1446.9 2584.52 1444.32 2605.35 1459.63 2615C1556.95 2676.37 1776.67 2768.08 2035.51 2757.12C2259.59 2747.62 2382.84 2639.37 2444.52 2550.66C2458.6 2530.43 2435.44 2509.46 2413.65 2520.97C2270.1 2596.82 2080.92 2635.55 1790.64 2580.43Z" fill="white"/>
<path d="M2941.74 2018.11C2897.27 2036.81 2853.11 2048.41 2809.28 2052.92C2765.44 2057.43 2723.86 2054.86 2684.54 2045.19C2645.87 2036.16 2611.38 2020.37 2581.08 1997.81C2550.79 1975.25 2526.94 1946.56 2509.53 1911.75C2492.77 1876.94 2484.39 1836.65 2484.39 1790.89C2484.39 1752.86 2490.52 1718.05 2502.76 1686.46C2515.66 1654.23 2533.7 1626.19 2556.91 1602.34C2580.12 1577.84 2607.51 1559.15 2639.1 1546.26C2670.68 1532.72 2705.17 1525.95 2742.56 1525.95C2776.08 1525.95 2806.37 1531.43 2833.45 1542.39C2860.52 1553.35 2884.05 1568.82 2904.03 1588.8C2924.02 1608.14 2940.13 1631.35 2952.38 1658.42C2964.63 1685.49 2972.36 1715.15 2975.59 1747.38C2978.81 1779.61 2976.87 1813.77 2969.78 1849.87C2916.93 1849.87 2863.75 1849.87 2810.24 1849.87C2756.74 1849.87 2703.56 1849.87 2650.7 1849.87C2662.95 1874.36 2683.25 1891.77 2711.62 1902.08C2740.62 1912.4 2774.79 1915.62 2814.11 1911.75C2854.08 1907.88 2896.62 1897.57 2941.74 1880.81C2941.74 1903.37 2941.74 1926.26 2941.74 1949.46C2941.74 1972.67 2941.74 1995.55 2941.74 2018.11ZM2738.69 1669.06C2720 1669.06 2702.59 1674.21 2686.48 1684.53C2671.01 1694.84 2659.08 1710.63 2650.7 1731.91C2679.71 1731.91 2708.72 1731.91 2737.72 1731.91C2767.38 1731.91 2796.71 1731.91 2825.71 1731.91C2817.98 1709.99 2806.37 1694.2 2790.9 1684.53C2776.08 1674.21 2758.67 1669.06 2738.69 1669.06Z" fill="white"/>
<path d="M2105.7 2041.32C2105.7 1958.81 2105.7 1875.65 2105.7 1791.85C2105.7 1707.41 2105.7 1623.93 2105.7 1541.42C2132.13 1541.42 2158.88 1541.42 2185.95 1541.42C2213.03 1541.42 2239.46 1541.42 2265.24 1541.42C2265.24 1545.94 2265.24 1550.45 2265.24 1554.96C2265.24 1559.47 2265.24 1563.98 2265.24 1568.5C2285.22 1554.32 2307.79 1543.68 2332.93 1536.59C2358.07 1529.5 2385.46 1527.56 2415.11 1530.79C2415.11 1556.57 2415.11 1582.68 2415.11 1609.11C2415.11 1635.54 2415.11 1661.64 2415.11 1687.43C2364.19 1680.34 2326.48 1684.85 2301.98 1700.96C2277.49 1716.44 2265.24 1741.9 2265.24 1777.35C2265.24 1820.54 2265.24 1864.37 2265.24 1908.85C2265.24 1953.33 2265.24 1997.49 2265.24 2041.32C2239.46 2041.32 2213.03 2041.32 2185.95 2041.32C2158.88 2041.32 2132.13 2041.32 2105.7 2041.32Z" fill="white"/>
<path d="M1810.68 2041.32C1810.68 2036.16 1810.68 2031.33 1810.68 2026.82C1810.68 2021.66 1810.68 2016.82 1810.68 2012.31C1794.56 2025.85 1776.19 2036.16 1755.56 2043.25C1735.58 2050.99 1713.99 2054.86 1690.78 2054.86C1657.9 2054.86 1626.96 2048.73 1597.96 2036.48C1568.95 2023.59 1543.16 2005.54 1520.6 1982.34C1498.69 1958.49 1481.28 1930.45 1468.39 1898.22C1456.14 1865.98 1450.02 1830.21 1450.02 1790.89C1450.02 1750.92 1456.14 1714.82 1468.39 1682.59C1481.28 1650.36 1498.69 1622.97 1520.6 1600.4C1543.16 1577.2 1568.95 1559.47 1597.96 1547.22C1626.96 1534.33 1657.58 1527.89 1689.81 1527.89C1713.02 1527.89 1734.94 1531.75 1755.56 1539.49C1776.19 1546.58 1794.56 1556.57 1810.68 1569.46C1810.68 1564.31 1810.68 1559.47 1810.68 1554.96C1810.68 1550.45 1810.68 1545.94 1810.68 1541.42C1837.11 1541.42 1863.86 1541.42 1890.93 1541.42C1918 1541.42 1944.43 1541.42 1970.22 1541.42C1970.22 1623.93 1970.22 1707.41 1970.22 1791.85C1970.22 1875.65 1970.22 1958.81 1970.22 2041.32C1944.43 2041.32 1918 2041.32 1890.93 2041.32C1863.86 2041.32 1837.11 2041.32 1810.68 2041.32ZM1712.05 1913.69C1742.99 1913.69 1767.81 1902.41 1786.5 1879.84C1805.2 1857.28 1814.54 1827.63 1814.54 1790.89C1814.54 1754.14 1805.2 1724.81 1786.5 1702.9C1767.81 1680.34 1742.99 1669.06 1712.05 1669.06C1680.47 1669.06 1655.33 1680.01 1636.63 1701.93C1618.58 1723.85 1609.56 1753.5 1609.56 1790.89C1609.56 1828.27 1618.58 1858.25 1636.63 1880.81C1655.33 1902.73 1680.47 1913.69 1712.05 1913.69Z" fill="white"/>
<path d="M1177.2 2041.32C1177.2 1924.64 1177.2 1807 1177.2 1688.39C1177.2 1569.79 1177.2 1452.14 1177.2 1335.47C1203.62 1335.47 1230.38 1335.47 1257.45 1335.47C1284.52 1335.47 1310.95 1335.47 1336.74 1335.47C1336.74 1452.14 1336.74 1569.79 1336.74 1688.39C1336.74 1807 1336.74 1924.64 1336.74 2041.32C1310.95 2041.32 1284.52 2041.32 1257.45 2041.32C1230.38 2041.32 1203.62 2041.32 1177.2 2041.32Z" fill="white"/>
<path d="M800.476 2056.79C763.089 2056.79 728.28 2050.34 696.049 2037.45C663.818 2023.91 635.778 2005.22 611.927 1981.37C588.077 1956.87 569.383 1928.51 555.846 1896.28C542.954 1864.05 536.508 1828.92 536.508 1790.89C536.508 1752.86 542.954 1717.72 555.846 1685.49C569.383 1653.26 588.077 1625.22 611.927 1601.37C635.778 1577.52 663.818 1559.15 696.049 1546.26C728.28 1532.72 763.089 1525.95 800.476 1525.95C838.508 1525.95 873.317 1532.72 904.903 1546.26C937.134 1559.15 965.174 1577.52 989.025 1601.37C1012.88 1625.22 1031.25 1653.26 1044.14 1685.49C1057.68 1717.72 1064.44 1752.86 1064.44 1790.89C1064.44 1828.92 1057.68 1864.05 1044.14 1896.28C1031.25 1928.51 1012.88 1956.87 989.025 1981.37C965.174 2005.22 937.134 2023.91 904.903 2037.45C873.317 2050.34 838.508 2056.79 800.476 2056.79ZM800.476 1912.72C832.062 1912.72 857.202 1901.44 875.895 1878.88C895.234 1855.67 904.903 1826.34 904.903 1790.89C904.903 1754.79 895.234 1725.78 875.895 1703.87C857.202 1681.3 832.062 1670.02 800.476 1670.02C768.89 1670.02 743.428 1681.3 724.09 1703.87C705.396 1725.78 696.049 1754.79 696.049 1790.89C696.049 1826.34 705.396 1855.67 724.09 1878.88C743.428 1901.44 768.89 1912.72 800.476 1912.72Z" fill="white"/>
<path d="M456.171 1843.1C456.171 1892.09 443.279 1932.06 417.494 1963C392.354 1993.3 358.19 2015.21 315.001 2028.75C272.457 2042.29 224.755 2048.09 171.897 2046.15C119.039 2044.86 65.2143 2036.81 10.4223 2021.98C10.4223 1994.26 10.4223 1966.54 10.4223 1938.83C10.4223 1911.11 10.4223 1883.39 10.4223 1855.67C60.702 1873.72 106.469 1885 147.724 1889.51C188.98 1894.03 221.855 1892.41 246.35 1884.68C270.845 1876.3 283.093 1862.44 283.093 1843.1C283.093 1829.56 276.324 1818.61 262.787 1810.23C249.251 1801.2 231.524 1793.14 209.607 1786.05C188.335 1778.96 165.774 1770.9 141.923 1761.88C118.072 1752.21 95.1887 1740.29 73.2719 1726.1C51.9997 1711.28 34.5952 1692.26 21.0584 1669.06C7.52159 1645.21 0.753174 1615.55 0.753174 1580.1C0.753174 1536.27 12.3562 1499.2 35.5622 1468.9C58.7682 1438.61 90.0318 1415.72 129.353 1400.25C169.319 1384.78 214.442 1377.05 264.721 1377.05C315.646 1377.05 368.181 1384.78 422.329 1400.25C422.329 1427.97 422.329 1455.69 422.329 1483.41C422.329 1511.13 422.329 1538.84 422.329 1566.56C377.206 1547.22 335.629 1535.62 297.596 1531.75C260.209 1527.24 230.235 1529.18 207.673 1537.56C185.112 1545.29 173.831 1558.18 173.831 1576.23C173.831 1589.12 180.6 1599.76 194.136 1608.14C207.673 1616.52 225.078 1624.26 246.35 1631.35C268.267 1637.79 291.15 1645.85 315.001 1655.52C338.852 1664.54 361.413 1676.79 382.685 1692.26C404.602 1707.09 422.329 1726.75 435.866 1751.24C449.402 1775.09 456.171 1805.71 456.171 1843.1Z" fill="white"/>
<path d="M1832.71 2210.74L1785.3 2348.31H1756.63L1816.36 2189.59H1834.68L1832.71 2210.74ZM1872.39 2348.31L1824.87 2210.74L1822.79 2189.59H1841.22L1901.17 2348.31H1872.39ZM1870.1 2289.44V2311.13H1783.77V2289.44H1870.1Z" fill="white"/>
<path d="M1707.33 2189.59V2348.31H1679.97L1608.79 2234.61V2348.31H1581.43V2189.59H1608.79L1680.19 2303.5V2189.59H1707.33Z" fill="white"/>
<path d="M1530.06 2326.61V2348.31H1445.8V2326.61H1530.06ZM1453.54 2189.59V2348.31H1426.18V2189.59H1453.54ZM1519.05 2255.87V2277.23H1445.8V2255.87H1519.05ZM1529.52 2189.59V2211.4H1445.8V2189.59H1529.52Z" fill="white"/>
<path d="M1256.54 2189.59H1312.68C1324.74 2189.59 1335.03 2191.41 1343.53 2195.04C1352.03 2198.68 1358.54 2204.06 1363.04 2211.18C1367.62 2218.23 1369.91 2226.95 1369.91 2237.34C1369.91 2245.26 1368.46 2252.24 1365.55 2258.27C1362.64 2264.3 1358.54 2269.39 1353.23 2273.53C1347.93 2277.6 1341.6 2280.76 1334.26 2283.01L1325.98 2287.04H1275.51L1275.29 2265.35H1313.12C1319.66 2265.35 1325.11 2264.19 1329.47 2261.86C1333.83 2259.54 1337.1 2256.38 1339.28 2252.38C1341.53 2248.31 1342.66 2243.73 1342.66 2238.65C1342.66 2233.12 1341.57 2228.33 1339.39 2224.26C1337.28 2220.12 1334.01 2216.95 1329.58 2214.77C1325.14 2212.52 1319.51 2211.4 1312.68 2211.4H1283.9V2348.31H1256.54V2189.59ZM1347.13 2348.31L1309.85 2277.02L1338.52 2276.91L1376.34 2346.89V2348.31H1347.13Z" fill="white"/>
<path d="M1141.3 2210.74L1093.88 2348.31H1065.21L1124.95 2189.59H1143.26L1141.3 2210.74ZM1180.98 2348.31L1133.45 2210.74L1131.38 2189.59H1149.8L1209.75 2348.31H1180.98ZM1178.69 2289.44V2311.13H1092.36V2289.44H1178.69Z" fill="white"/>
<path d="M1479.88 437.442C950.667 437.442 806.441 889.605 823.095 1171.16C824.731 1198.81 863.693 1209.98 885.964 1193.5C979.065 1124.61 1173.03 1048.08 1479.88 1048.08C1783.68 1048.08 1982.46 1123.1 2079.12 1191.45C2102.21 1207.77 2143.07 1194.83 2143.9 1166.57C2153.07 853.739 1967.02 437.442 1479.88 437.442Z" fill="white"/>
<path d="M1556.97 167.77C1556.97 260.213 1523.66 335.153 1482.57 335.153C1441.49 335.153 1408.18 260.213 1408.18 167.77C1408.18 75.3274 1408.18 0.387608 1482.57 0.387608C1556.97 0.387608 1556.97 75.3274 1556.97 167.77Z" fill="white"/>
<path d="M2088.49 391.628C2029.09 462.457 1955.41 498.472 1923.93 472.07C1892.45 445.668 1915.09 366.847 1974.49 296.017C2033.9 225.188 2082.06 167.77 2139.06 215.575C2196.05 263.38 2147.9 320.798 2088.49 391.628Z" fill="white"/>
<path d="M2367.53 854.262C2278.97 880.777 2197.62 870.365 2185.84 831.006C2174.06 791.646 2236.29 738.245 2324.85 711.729C2413.41 685.214 2485.2 663.719 2506.54 734.986C2527.88 806.252 2456.09 827.747 2367.53 854.262Z" fill="white"/>
<path d="M641.066 706.712C730.408 730.457 794.278 781.896 783.724 821.603C773.171 861.31 692.19 874.25 602.849 850.504C513.508 826.759 441.083 807.51 460.191 735.614C479.3 663.717 551.725 682.967 641.066 706.712Z" fill="white"/>
<path d="M988.41 300.088C1042.76 374.866 1059.88 455.068 1026.64 479.223C993.408 503.379 922.406 462.341 868.057 387.563C813.707 312.784 769.648 252.165 829.825 208.427C890.002 164.69 934.061 225.31 988.41 300.088Z" fill="white"/>
</svg>
