<svg xmlns="http://www.w3.org/2000/svg" viewBox="-130 1330 730 730">
  <!-- Teal rounded-square background -->
  <rect x="-130" y="1330" width="730" height="730" rx="146" fill="#08747d"/>
  <!-- S lettermark from LogoSolareColor.svg, rendered white -->
  <path d="M455.668 1843.1C455.668 1892.09 442.776 1932.06 416.991 1963C391.852 1993.3 357.687 2015.21 314.498 2028.75C271.954 2042.29 224.253 2048.09 171.395 2046.15C118.536 2044.86 64.7115 2036.81 9.91953 2021.98C9.91953 1994.26 9.91953 1966.54 9.91953 1938.83C9.91953 1911.11 9.91953 1883.39 9.91953 1855.67C60.1992 1873.72 105.967 1885 147.222 1889.51C188.477 1894.03 221.352 1892.41 245.847 1884.68C270.342 1876.3 282.59 1862.44 282.59 1843.1C282.59 1829.56 275.821 1818.61 262.285 1810.23C248.748 1801.2 231.021 1793.14 209.104 1786.05C187.832 1778.96 165.271 1770.9 141.42 1761.88C117.57 1752.21 94.6859 1740.29 72.7691 1726.1C51.4969 1711.28 34.0924 1692.26 20.5556 1669.06C7.01878 1645.21 0.250366 1615.55 0.250366 1580.1C0.250366 1536.27 11.8534 1499.2 35.0594 1468.9C58.2653 1438.61 89.529 1415.72 128.85 1400.25C168.816 1384.78 213.939 1377.05 264.219 1377.05C315.143 1377.05 367.679 1384.78 421.826 1400.25C421.826 1427.97 421.826 1455.69 421.826 1483.41C421.826 1511.13 421.826 1538.84 421.826 1566.56C376.703 1547.22 335.126 1535.62 297.094 1531.75C259.706 1527.24 229.732 1529.18 207.17 1537.56C184.609 1545.29 173.328 1558.18 173.328 1576.23C173.328 1589.12 180.097 1599.76 193.634 1608.14C207.17 1616.52 224.575 1624.26 245.847 1631.35C267.764 1637.79 290.648 1645.85 314.498 1655.52C338.349 1664.54 360.91 1676.79 382.182 1692.26C404.099 1707.09 421.826 1726.75 435.363 1751.24C448.9 1775.09 455.668 1805.71 455.668 1843.1Z" fill="white"/>
</svg>
